<svg width="35" height="35" viewBox="0 0 35 35" fill="none" xmlns="http://www.w3.org/2000/svg">
<path fill-rule="evenodd" clip-rule="evenodd" d="M21.0391 16.864C19.1378 16.864 17.6114 18.3841 17.6114 20.2372V20.2927C17.6114 20.6495 17.3532 20.954 17.0011 21.0121C15.374 21.2809 14.1474 22.6713 14.1474 24.3352C14.1474 26.1882 15.6737 27.7083 17.5751 27.7083H29.3485C30.8687 27.7083 32.0833 26.4959 32.0833 25.0189C32.0833 23.7066 31.1207 22.601 29.8364 22.3739C29.6385 22.3389 29.4638 22.2238 29.3535 22.0557C29.2433 21.8876 29.2074 21.6815 29.2542 21.486C29.2954 21.3138 29.3164 21.1237 29.3164 20.9209C29.3164 19.4439 28.1018 18.2315 26.5816 18.2315C25.997 18.2315 25.4568 18.4109 25.0128 18.7176C24.848 18.8315 24.6436 18.8725 24.4475 18.831C24.2515 18.7896 24.0812 18.6693 23.9766 18.4984C23.3777 17.5204 22.289 16.864 21.0391 16.864ZM16.1823 19.706C16.4502 17.2811 18.531 15.4057 21.0391 15.4057C22.5556 15.4057 23.9112 16.0889 24.8073 17.1618C25.3476 16.9118 25.9495 16.7731 26.5816 16.7731C28.889 16.7731 30.7748 18.6204 30.7748 20.9209C30.7748 20.9864 30.7733 21.0521 30.7703 21.1178C32.3815 21.6926 33.5417 23.2173 33.5417 25.0189C33.5417 27.3194 31.6559 29.1666 29.3485 29.1666H17.5751C14.8865 29.1666 12.6891 27.0117 12.6891 24.3352C12.6891 22.1374 14.1679 20.2967 16.1823 19.706Z" fill="grey"/>
<path fill-rule="evenodd" clip-rule="evenodd" d="M16.7603 6.0882C17.1328 5.82801 17.602 5.76536 18.0254 5.90801C18.0567 5.91607 18.0876 5.92627 18.118 5.93863C18.5738 6.12385 18.8973 6.53074 18.9782 7.00992L19.5021 10.1156L22.6556 10.6337C23.1301 10.7117 23.5435 11.0256 23.7342 11.4826C23.9202 11.9284 23.8683 12.4399 23.5899 12.8388L23.5867 12.8433L22.273 14.6954C21.8968 14.6219 21.5081 14.5833 21.1105 14.5833C20.8452 14.5833 20.5838 14.6005 20.3272 14.6339L22.3531 12.0618L18.7515 11.4702C18.444 11.4196 18.2026 11.1792 18.1507 10.8719L17.5507 7.31469L14.5257 9.40609C14.2762 9.57861 13.9459 9.57861 13.6964 9.40609L10.672 7.31514L10.0713 10.8762C10.0195 11.1835 9.77806 11.4239 9.47052 11.4744L5.86903 12.0661L7.9724 15.0291C8.15184 15.2819 8.15184 15.6205 7.9724 15.8733L5.86903 18.8362L9.47052 19.4279C9.77826 19.4785 10.0198 19.7192 10.0714 20.0267L10.6677 23.5788L12.1093 22.3637C11.8243 23.0538 11.6667 23.8105 11.6667 24.6066C11.6667 24.6249 11.6668 24.6432 11.6669 24.6616L11.4565 24.8062C11.0535 25.0873 10.5373 25.1373 10.0886 24.9463C9.64984 24.7595 9.32168 24.3661 9.23942 23.879L8.71955 20.7824L5.56642 20.2644C5.09197 20.1864 4.67856 19.8724 4.48789 19.4155C4.30189 18.9697 4.35373 18.4582 4.63221 18.0592L4.63553 18.0545L6.4836 15.4512L4.63671 12.8495C4.34817 12.4472 4.29526 11.9273 4.4927 11.4756C4.68494 11.0358 5.08398 10.7173 5.56656 10.6379L8.71997 10.1198L9.24387 7.01406C9.32479 6.53487 9.64823 6.12812 10.104 5.9429C10.5472 5.76281 11.0556 5.81205 11.4553 6.08379L11.46 6.08702L14.111 7.91984L16.7603 6.0882ZM17.6016 15.7111C16.5957 16.4342 15.8238 17.4611 15.427 18.6611C15.0126 18.8274 14.5662 18.9152 14.111 18.9152C13.1858 18.9152 12.2965 18.5526 11.6393 17.904C10.9818 17.2551 10.6106 16.373 10.6106 15.4512C10.6106 14.5293 10.9818 13.6472 11.6393 12.9983C12.2965 12.3498 13.1858 11.9871 14.111 11.9871C15.0363 11.9871 15.9256 12.3498 16.5828 12.9983C17.2403 13.6472 17.6114 14.5293 17.6114 15.4512C17.6114 15.5382 17.6081 15.6249 17.6016 15.7111ZM12.6637 14.0363C13.0459 13.6591 13.5664 13.4455 14.111 13.4455C14.6557 13.4455 15.1762 13.6591 15.5584 14.0363C15.9403 14.4132 16.1531 14.9224 16.1531 15.4512C16.1531 15.98 15.9403 16.4891 15.5584 16.866C15.1762 17.2432 14.6557 17.4569 14.111 17.4569C13.5664 17.4569 13.0459 17.2432 12.6637 16.866C12.2817 16.4891 12.069 15.98 12.069 15.4512C12.069 14.9224 12.2817 14.4132 12.6637 14.0363Z" fill="#EBB969"/>
</svg>
