<svg width="800" height="800" viewBox="0 0 800 800" fill="none" xmlns="http://www.w3.org/2000/svg">
<path d="M191.356 397.626C164.195 366.004 147.798 324.892 147.798 279.924C147.798 277.224 147.858 274.524 147.993 271.843C152.201 175.706 231.49 99.0389 328.704 99.0389C428.599 99.0389 509.591 180.031 509.591 279.926C509.591 327.77 490.982 371.249 460.652 403.596C579.469 415.69 666.077 396.591 722.766 360.606C747.755 344.735 780.433 362.895 780.433 392.501V421.638C780.433 575.913 714.078 700.972 559.804 700.972H316.807C228.301 700.972 156.643 628.883 157.289 540.241C157.661 491.947 179.831 448.996 214.29 420.035C205.993 413.26 198.323 405.746 191.356 397.626Z" fill="#F0C419"/>
<path d="M191.356 397.626C78.2139 406.295 19.5687 342.659 19.5687 342.659C83.8889 334.988 132.653 288.26 147.993 271.842C147.856 274.523 147.798 277.223 147.798 279.923C147.798 324.892 164.197 366.004 191.356 397.626Z" fill="#F78A68"/>
<path d="M128.926 263.404C111.873 280.449 69.8077 316.96 17.25 323.229C9.95313 324.099 3.75627 328.985 1.21252 335.879C-1.33278 342.774 0.196901 350.513 5.1797 355.918C7.6672 358.616 63.7061 418.012 170.232 418.009C174.459 418.009 178.776 417.902 183.164 417.709C183.986 418.577 184.795 419.46 185.632 420.313C155.297 452.88 138.065 495.465 137.722 540.091C137.372 588.197 155.837 633.488 189.718 667.614C223.596 701.739 268.731 720.531 316.809 720.531H559.804C638.447 720.531 702.119 689.389 743.928 630.475C780.611 578.785 800 506.569 800 421.63V392.493C800 371.595 788.611 352.352 770.277 342.277C751.755 332.099 730.074 332.776 712.278 344.076C660.847 376.726 587.346 391.324 498.255 386.846C518.36 355.063 529.158 318.165 529.158 279.917C529.158 169.387 439.235 79.4624 328.706 79.4624C223.611 79.4686 137.261 159.732 128.926 263.404ZM131.136 313.745C135.023 336.459 142.812 358.31 154.111 378.345C114.215 375.682 84.192 363.462 64.1249 351.888C90.9045 342.131 113.648 327.531 131.136 313.745ZM328.706 118.604C417.655 118.604 490.022 190.972 490.022 279.923C490.022 321.026 474.523 360.193 446.376 390.209C441.287 395.637 439.716 403.482 442.323 410.452C444.93 417.423 451.265 422.309 458.669 423.062C572.694 434.663 667.628 418.78 733.255 377.121C741.275 372.026 748.634 375.048 751.425 376.581C754.263 378.14 760.861 382.813 760.861 392.498V421.635C760.861 498.41 743.967 562.794 712.01 607.828C677.364 656.647 626.153 681.4 559.8 681.4H316.807C279.237 681.4 243.964 666.714 217.49 640.046C191.012 613.374 176.581 577.979 176.856 540.388C177.167 499.877 195.403 461.466 226.879 435.01C231.339 431.259 233.898 425.718 233.856 419.888C233.815 414.06 231.178 408.554 226.661 404.87C219.334 398.89 212.453 392.166 206.206 384.885C206.206 384.885 206.201 384.879 206.198 384.876C181.154 355.72 167.364 318.446 167.364 279.923C167.364 277.379 167.418 275.064 167.54 272.696C171.325 186.29 242.115 118.604 328.706 118.604Z" fill="black"/>
<path d="M456.855 624.653H473.155C483.96 624.653 492.724 615.893 492.724 605.085C492.724 594.277 483.962 585.516 473.155 585.516H456.855C446.051 585.516 437.287 594.277 437.287 605.085C437.287 615.893 446.048 624.653 456.855 624.653Z" fill="black"/>
<path d="M551.693 617.553C553.482 617.553 555.3 617.307 557.105 616.788C603.452 603.475 643.713 573.877 670.478 533.444C676.442 524.433 673.974 512.291 664.963 506.327C655.95 500.363 643.81 502.83 637.846 511.843C616.218 544.518 583.707 568.43 546.305 579.172C535.916 582.157 529.918 592.996 532.899 603.382C535.36 611.968 543.186 617.553 551.693 617.553Z" fill="black"/>
<path d="M279.823 285.696C290.629 285.696 299.392 276.935 299.392 266.128V217.012C299.392 206.204 290.629 197.443 279.823 197.443C269.018 197.443 260.254 206.204 260.254 217.012V266.128C260.256 276.935 269.018 285.696 279.823 285.696Z" fill="black"/>
</svg>
